<svg xmlns="http://www.w3.org/2000/svg" viewBox="0 0 128 128" role="img" aria-labelledby="title desc">
  <title id="title">Agri Atlas maskable icon</title>
  <desc id="desc">Farm-themed emblem with safe padding for maskable app icons.</desc>
  <defs>
    <linearGradient id="shell" x1="8" y1="8" x2="120" y2="120" gradientUnits="userSpaceOnUse">
      <stop offset="0" stop-color="#7b8f4d" />
      <stop offset="1" stop-color="#5f7038" />
    </linearGradient>
    <linearGradient id="panel" x1="32" y1="20" x2="96" y2="102" gradientUnits="userSpaceOnUse">
      <stop offset="0" stop-color="#fbf3de" />
      <stop offset="0.36" stop-color="#f4dfaa" />
      <stop offset="1" stop-color="#7d9250" />
    </linearGradient>
    <linearGradient id="hills" x1="36" y1="60" x2="94" y2="104" gradientUnits="userSpaceOnUse">
      <stop offset="0" stop-color="#7e9150" />
      <stop offset="1" stop-color="#5f7038" />
    </linearGradient>
    <linearGradient id="fields" x1="38" y1="76" x2="92" y2="108" gradientUnits="userSpaceOnUse">
      <stop offset="0" stop-color="#a55a2a" />
      <stop offset="0.58" stop-color="#c28b45" />
      <stop offset="1" stop-color="#e0bc73" />
    </linearGradient>
  </defs>
  <rect width="128" height="128" rx="32" fill="url(#shell)" />
  <rect x="20" y="20" width="88" height="88" rx="26" fill="#f1e5c4" fill-opacity="0.16" />
  <path d="M28 102V58C28 39.22 43.22 24 62 24H66C84.78 24 100 39.22 100 58V102H28Z" fill="url(#panel)" stroke="#efe4c5" stroke-opacity="0.4" stroke-width="1.4" />
  <circle cx="81" cy="43" r="8.5" fill="#e1a64c" />
  <path d="M28 71.5C36.5 60.5 48 55 62 55H66C80 55 91.75 60.83 100 72.5V102H28V71.5Z" fill="url(#hills)" />
  <path d="M28 86.5C38.22 77.28 49.94 72.67 63.17 72.67C76.39 72.67 88.67 77.11 100 86V102H28V86.5Z" fill="url(#fields)" />
  <path d="M31.6 94.8C40.11 87.88 50.51 84.43 62.8 84.43C75.08 84.43 85.33 87.76 93.55 94.42" fill="none" stroke="#f4e3b6" stroke-width="2.1" stroke-linecap="round" />
  <path d="M35.3 101.2C42.86 95.58 52.02 92.77 62.76 92.77C73.5 92.77 82.92 95.39 91.6 100.63" fill="none" stroke="#f8edd0" stroke-width="1.95" stroke-linecap="round" />
  <path d="M64 46.4C71.24 46.4 77.1 52.25 77.1 59.49C77.1 69.85 64 84.57 64 84.57C64 84.57 50.9 69.85 50.9 59.49C50.9 52.25 56.76 46.4 64 46.4Z" fill="#fff6e4" stroke="#84582a" stroke-width="1.45" />
  <circle cx="64" cy="59.2" r="4.7" fill="#61733d" />
  <path d="M64 101.3V82.6" fill="none" stroke="#fff6e4" stroke-width="6.2" stroke-linecap="round" />
</svg>