<svg xmlns="http://www.w3.org/2000/svg" viewBox="0 0 128 128" role="img" aria-labelledby="title desc">
  <title id="title">Agri Atlas logo mark</title>
  <desc id="desc">Farm-themed emblem with a sunrise, cultivated fields, and a map pin.</desc>
  <defs>
    <linearGradient id="shell" x1="14" y1="12" x2="116" y2="118" gradientUnits="userSpaceOnUse">
      <stop offset="0" stop-color="#f8efd7" />
      <stop offset="0.55" stop-color="#efe2bc" />
      <stop offset="1" stop-color="#d7ddb0" />
    </linearGradient>
    <linearGradient id="panel" x1="32" y1="16" x2="98" y2="104" gradientUnits="userSpaceOnUse">
      <stop offset="0" stop-color="#fbf3de" />
      <stop offset="0.36" stop-color="#f4dfaa" />
      <stop offset="1" stop-color="#7d9250" />
    </linearGradient>
    <linearGradient id="hills" x1="28" y1="58" x2="102" y2="104" gradientUnits="userSpaceOnUse">
      <stop offset="0" stop-color="#7e9150" />
      <stop offset="1" stop-color="#5f7038" />
    </linearGradient>
    <linearGradient id="fields" x1="30" y1="74" x2="98" y2="108" gradientUnits="userSpaceOnUse">
      <stop offset="0" stop-color="#a55a2a" />
      <stop offset="0.58" stop-color="#c28b45" />
      <stop offset="1" stop-color="#e0bc73" />
    </linearGradient>
  </defs>
  <rect x="6" y="6" width="116" height="116" rx="31" fill="url(#shell)" />
  <rect x="6.75" y="6.75" width="114.5" height="114.5" rx="30.5" fill="none" stroke="#76673b" stroke-opacity="0.18" stroke-width="1.5" />
  <path d="M24 104V56C24 33.91 41.91 16 64 16C86.09 16 104 33.91 104 56V104H24Z" fill="url(#panel)" stroke="#6c5d34" stroke-opacity="0.18" stroke-width="1.5" />
  <circle cx="83" cy="38" r="10" fill="#e1a64c" />
  <path d="M24 71.5C33.6 58.67 46.68 52.25 62.5 52.25C78.33 52.25 92.17 58.67 104 71.5V104H24V71.5Z" fill="url(#hills)" />
  <path d="M24 86.8C35.67 75.87 49.1 70.4 64.3 70.4C79.5 70.4 92.73 75.6 104 86V104H24V86.8Z" fill="url(#fields)" />
  <path d="M26.4 95.2C36.56 86.89 49.09 82.73 63.98 82.73C78.87 82.73 91.11 86.76 100.7 94.8" fill="none" stroke="#f4e3b6" stroke-width="2.35" stroke-linecap="round" />
  <path d="M30.2 103.2C39.16 96.46 50.08 93.09 62.95 93.09C75.83 93.09 87.07 96.21 96.7 102.45" fill="none" stroke="#f8edd0" stroke-width="2.15" stroke-linecap="round" />
  <path d="M64 44.5C72.17 44.5 78.8 51.11 78.8 59.28C78.8 70.98 64 87.6 64 87.6C64 87.6 49.2 70.98 49.2 59.28C49.2 51.11 55.83 44.5 64 44.5Z" fill="#fff6e4" stroke="#84582a" stroke-width="1.6" />
  <circle cx="64" cy="58.9" r="5.2" fill="#61733d" />
  <path d="M64 102.6V81.2" fill="none" stroke="#fff6e4" stroke-width="7.2" stroke-linecap="round" />
</svg>